<svg width="512" height="466" viewBox="0 0 512 466" fill="none" xmlns="http://www.w3.org/2000/svg">
<g clip-path="url(#clip0_3312_65)">
<path d="M0.93 361.2C2.48 358.71 4.96 358.56 8.38 360.73C85.95 405.72 170.36 428.22 261.59 428.22C322.4 428.22 382.45 416.89 441.72 394.24C443.27 393.62 445.52 392.69 448.47 391.45C451.42 390.21 453.51 389.28 454.75 388.66C459.4 386.8 463.05 387.73 465.69 391.45C468.33 395.17 467.47 398.59 463.13 401.69C457.54 405.72 450.4 410.38 441.72 415.65C415.03 431.48 385.24 443.74 352.35 452.42C319.46 461.11 287.34 465.46 256 465.46C207.59 465.46 161.82 457 118.69 440.09C75.56 423.18 36.92 399.36 2.79 368.64C0.93 367.09 0 365.54 0 363.99C0 363.06 0.31 362.12 0.93 361.2Z" fill="#FF9900"/>
<path fill-rule="evenodd" clip-rule="evenodd" d="M141.03 228.54C141.03 207.13 146.31 188.82 156.86 173.62C167.41 158.41 181.84 146.93 200.15 139.17C216.9 132.04 237.54 126.92 262.05 123.81C270.43 122.88 284.08 121.64 303.01 120.09V112.18C303.01 92.32 300.84 78.97 296.5 72.15C289.98 62.84 279.74 58.18 265.77 58.18H262.05C251.81 59.11 242.97 62.37 235.52 67.96C228.07 73.54 223.26 81.3 221.09 91.23C219.85 97.44 216.75 101 211.78 101.94L158.25 95.42C152.98 94.18 150.34 91.39 150.34 87.04C150.34 86.11 150.5 85.02 150.81 83.78C156.08 56.17 169.04 35.69 189.67 22.34C210.31 9 234.43 1.55 262.05 0H273.69C309.06 0 336.68 9.15 356.54 27.46C359.65 30.58 362.53 33.92 365.15 37.47C367.79 41.04 369.88 44.22 371.43 47.01C372.99 49.8 374.38 53.84 375.62 59.11C376.86 64.39 377.79 68.04 378.42 70.05C379.04 72.07 379.5 76.41 379.81 83.09C380.12 89.76 380.28 93.71 380.28 94.95V207.59C380.28 215.66 381.44 223.03 383.77 229.7C386.09 236.38 388.35 241.18 390.52 244.13C392.69 247.08 396.26 251.81 401.22 258.33C403.08 261.12 404.02 263.6 404.02 265.78C404.02 268.26 402.77 270.43 400.29 272.29C374.53 294.64 360.57 306.74 358.4 308.6C354.68 311.39 350.18 311.7 344.9 309.53C340.56 305.8 336.76 302.24 333.5 298.82C330.24 295.41 327.91 292.93 326.52 291.38C325.12 289.82 322.87 286.8 319.77 282.3C316.66 277.8 314.49 274.78 313.25 273.22C295.87 292.15 278.81 303.94 262.05 308.6C251.5 311.7 238.47 313.25 222.95 313.25C199.06 313.25 179.43 305.88 164.07 291.14C148.71 276.4 141.03 255.54 141.03 228.54ZM221.09 219.23C221.09 231.33 224.12 241.03 230.17 248.32C236.22 255.61 244.36 259.26 254.6 259.26C255.53 259.26 256.85 259.1 258.56 258.79C260.27 258.48 261.43 258.33 262.05 258.33C275.08 254.92 285.17 246.54 292.3 233.2C295.72 227.3 298.28 220.86 299.98 213.88C301.69 206.9 302.62 201.23 302.78 196.89C302.93 192.54 303.01 185.41 303.01 175.48V163.84C285.01 163.84 271.36 165.08 262.05 167.56C234.74 175.32 221.09 192.54 221.09 219.23Z" fill="black"/>
<path d="M416.58 369.11C417.2 367.87 418.13 366.62 419.38 365.38C427.13 360.11 434.58 356.54 441.72 354.68C453.51 351.58 464.99 349.87 476.16 349.56C479.26 349.25 482.21 349.4 485 350.02C498.97 351.26 507.35 353.59 510.14 357C511.38 358.87 512 361.66 512 365.38V368.64C512 379.5 509.05 392.3 503.16 407.04C497.26 421.78 489.04 433.65 478.49 442.65C476.94 443.89 475.54 444.51 474.3 444.51C473.68 444.51 473.06 444.36 472.44 444.05C470.58 443.12 470.11 441.41 471.04 438.92C482.52 411.93 488.26 393.16 488.26 382.61C488.26 379.19 487.64 376.71 486.4 375.16C483.3 371.44 474.61 369.57 460.34 369.57C455.06 369.57 448.85 369.88 441.72 370.5C433.96 371.44 426.82 372.36 420.3 373.3C418.44 373.3 417.2 372.99 416.58 372.36C415.96 371.74 415.81 371.12 416.12 370.5C416.12 370.19 416.27 369.73 416.58 369.11Z" fill="#FF9900"/>
</g>
<defs>
<clipPath id="clip0_3312_65">
<rect width="512" height="465.46" fill="white"/>
</clipPath>
</defs>
</svg>
